<svg viewBox="0 0 4 8" xmlns="http://www.w3.org/2000/svg">
<path d="M4 4.02333C3.99238 4.07778 3.98095 4.12639 3.96571 4.16917C3.95048 4.21194 3.92381 4.24889 3.88571 4.28L0.571429 7.44167C0.540952 7.45722 0.508571 7.47083 0.474286 7.4825C0.44 7.49417 0.40381 7.5 0.365714 7.5C0.266667 7.5 0.184762 7.465 0.12 7.395C0.0552381 7.325 0.0228571 7.24333 0.0228571 7.15C0.0228571 7.10333 0.0285715 7.0625 0.04 7.0275C0.0514286 6.9925 0.0685714 6.95944 0.0914286 6.92833L3.15429 4.02333L0.0914286 1.095C0.0685714 1.06389 0.047619 1.02694 0.0285714 0.984167C0.00952381 0.941389 0 0.896667 0 0.85C0 0.756667 0.0342857 0.675 0.102857 0.605C0.171429 0.535 0.255238 0.5 0.354286 0.5C0.392381 0.5 0.430476 0.507777 0.468571 0.523333C0.506667 0.538889 0.540952 0.554444 0.571429 0.57L3.88571 3.755C3.92381 3.78611 3.95238 3.825 3.97143 3.87167C3.99048 3.91833 4 3.965 4 4.01167V4.02333Z" fill="currentColor"/>
</svg>
