<svg viewBox="0 0 15 9" xmlns="http://www.w3.org/2000/svg"><path d="M7.54667 0C7.65556 0.0155556 7.75278 0.0388896 7.83833 0.0700007C7.92389 0.101112 7.99778 0.155556 8.06 0.233333L14.3833 7C14.4144 7.06222 14.4417 7.12833 14.465 7.19833C14.4883 7.26833 14.5 7.34222 14.5 7.42C14.5 7.62222 14.43 7.78944 14.29 7.92167C14.15 8.05389 13.9867 8.12 13.8 8.12C13.7067 8.12 13.625 8.10833 13.555 8.085C13.485 8.06167 13.4189 8.02667 13.3567 7.98L7.54667 1.72667L1.69 7.98C1.62778 8.02667 1.55389 8.06944 1.46833 8.10833C1.38278 8.14722 1.29333 8.16667 1.2 8.16667C1.01333 8.16667 0.85 8.09666 0.71 7.95667C0.57 7.81666 0.5 7.64555 0.5 7.44333C0.5 7.36555 0.515556 7.28778 0.546667 7.21C0.577778 7.13222 0.608889 7.06222 0.64 7L7.01 0.233333C7.07222 0.155556 7.15 0.0972222 7.24333 0.0583333C7.33667 0.0194444 7.43 0 7.52333 0H7.54667Z" fill="currentColor"/></svg>
