<svg viewBox="0 0 5 7" xmlns="http://www.w3.org/2000/svg">
<path d="M0 3.47667C0.00777778 3.42222 0.0194445 3.37361 0.035 3.33083C0.0505556 3.28806 0.0777778 3.25111 0.116667 3.22L3.5 0.0583333C3.53111 0.0427778 3.56417 0.0291668 3.59917 0.0175002C3.63417 0.00583351 3.67111 0 3.71 0C3.81111 0 3.89472 0.0350002 3.96083 0.105C4.02694 0.175 4.06 0.256667 4.06 0.35C4.06 0.396667 4.05417 0.4375 4.0425 0.4725C4.03083 0.5075 4.01333 0.540556 3.99 0.571667L0.863333 3.47667L3.99 6.405C4.01333 6.43611 4.03472 6.47306 4.05417 6.51583C4.07361 6.55861 4.08333 6.60333 4.08333 6.65C4.08333 6.74333 4.04833 6.825 3.97833 6.895C3.90833 6.965 3.82278 7 3.72167 7C3.68278 7 3.64389 6.99222 3.605 6.97667C3.56611 6.96111 3.53111 6.94556 3.5 6.93L0.116667 3.745C0.0777778 3.71389 0.0486111 3.675 0.0291667 3.62833C0.00972222 3.58167 0 3.535 0 3.48833V3.47667Z" fill="currentColor"/>
</svg>
