<svg viewBox="0 0 11 6" xmlns="http://www.w3.org/2000/svg"><path d="M5.53368 5.83333C5.45591 5.82222 5.38646 5.80556 5.32535 5.78333C5.26424 5.76111 5.21146 5.72222 5.16702 5.66667L0.65035 0.833333C0.628128 0.788889 0.608683 0.741667 0.592017 0.691667C0.57535 0.641667 0.567017 0.588888 0.567017 0.533333C0.567017 0.388888 0.617017 0.269445 0.717017 0.175001C0.817017 0.0805561 0.933683 0.0333328 1.06702 0.0333328C1.13368 0.0333328 1.19202 0.0416664 1.24202 0.0583331C1.29202 0.0749997 1.33924 0.100001 1.38368 0.133334L5.53368 4.58333L9.71702 0.133334C9.76146 0.100001 9.81424 0.0694444 9.87535 0.0416667C9.93646 0.0138889 10.0003 0 10.067 0C10.2003 0 10.317 0.0500003 10.417 0.15C10.517 0.25 10.567 0.372222 10.567 0.516666C10.567 0.572222 10.5559 0.627778 10.5337 0.683333C10.5115 0.738889 10.4892 0.788889 10.467 0.833333L5.91702 5.66667C5.87257 5.72222 5.81702 5.76389 5.75035 5.79167C5.68368 5.81944 5.61702 5.83333 5.55035 5.83333H5.53368Z" fill="currentColor"/></svg>
