<svg viewBox="0 0 11 11" version="1.1" xmlns="http://www.w3.org/2000/svg"><path d="M6.49983,0.916504 L9.58316,0.916504 C9.8593,0.916504 10.0832,1.14037 10.0832,1.416504 L10.0832,4.49985 C10.0832,4.77599 9.85932,4.99985 9.58318,4.99985 C9.30704,4.99985 9.08318,4.77599 9.08318,4.49985 L9.08318,2.62361 L4.85336,6.85338 C4.75577,6.951 4.62779,6.99984 4.49983,6.99984 C4.37187,6.99984 4.24391,6.951 4.14631,6.8534 C3.95108,6.65813 3.95108,6.34153 4.14631,6.1463 L8.37606,1.91652 L6.49983,1.91652 C6.22369,1.91652 5.99982,1.69265 5.99982,1.416504 C5.99982,1.14037 6.22369,0.916504 6.49983,0.916504 Z M8,7.33349 C8,7.05735 8.22385,6.83348 8.5,6.83348 C8.77613,6.83348 9.00002,7.05735 9.00002,7.33349 L9.00002,10.5001 C9.00002,10.7763 8.77615,11.0002 8.50002,11.0002 L0.5,11.0002 C0.223867,11.0002 0,10.7763 0,10.5002 L0,2.50016 C0,2.22402 0.223867,2.00016 0.5,2.00016 L3.66667,2.00016 C3.94281,2.00016 4.16667,2.224 4.16667,2.50014 C4.16667,2.77628 3.94281,3.00015 3.66667,3.00015 L1,3.00015 L1,10.0002 L8,10.0002 L8,7.33349 Z" fill="currentColor"></path></svg>