<svg viewBox="0 0 21 13" xmlns="http://www.w3.org/2000/svg">
<path d="M20.0738 5.66667C19.0294 3.95556 17.6294 2.58333 15.8738 1.55C14.1182 0.516667 12.2627 0 10.3071 0C8.35157 0 6.49602 0.516667 4.74046 1.55C2.98491 2.58333 1.58491 3.95556 0.540462 5.66667C0.384907 5.93333 0.307129 6.18889 0.307129 6.43333C0.307129 6.67778 0.384907 6.93333 0.540462 7.2C1.58491 8.91111 2.98491 10.2833 4.74046 11.3167C6.49602 12.35 8.35157 12.8667 10.3071 12.8667C12.2627 12.8667 14.1182 12.35 15.8738 11.3167C17.6294 10.2833 19.0294 8.91111 20.0738 7.2C20.2294 6.93333 20.3071 6.67778 20.3071 6.43333C20.3071 6.18889 20.2294 5.93333 20.0738 5.66667ZM7.90713 2.6C8.5738 1.93333 9.3738 1.6 10.3071 1.6C10.4627 1.6 10.5905 1.65556 10.6905 1.76667C10.7905 1.87778 10.8405 2.00556 10.8405 2.15C10.8405 2.29445 10.7905 2.42222 10.6905 2.53333C10.5905 2.64444 10.4627 2.7 10.3071 2.7C9.66268 2.7 9.11268 2.92222 8.65713 3.36667C8.20157 3.81111 7.9738 4.35556 7.9738 5C7.9738 5.15556 7.9238 5.28333 7.8238 5.38333C7.7238 5.48333 7.60157 5.53333 7.45713 5.53333C7.31269 5.53333 7.18491 5.48333 7.0738 5.38333C6.96268 5.28333 6.90713 5.15556 6.90713 5C6.90713 4.06667 7.24046 3.26667 7.90713 2.6ZM15.1405 10.0667C13.6516 10.9778 12.0405 11.4333 10.3071 11.4333C8.5738 11.4333 6.95713 10.9833 5.45713 10.0833C3.95713 9.18333 2.71824 7.96667 1.74046 6.43333C2.8738 4.67778 4.28491 3.36667 5.9738 2.5C5.52935 3.27778 5.30713 4.11111 5.30713 5C5.30713 6.37778 5.79602 7.55556 6.7738 8.53333C7.75157 9.51111 8.92935 10 10.3071 10C11.6849 10 12.8627 9.51111 13.8405 8.53333C14.8182 7.55556 15.3071 6.37778 15.3071 5C15.3071 4.11111 15.0849 3.27778 14.6405 2.5C16.3294 3.36667 17.7405 4.67778 18.8738 6.43333C17.896 7.96667 16.6516 9.17778 15.1405 10.0667Z" fill="currentColor"/>
</svg>
