<svg viewBox="0 0 21 15" xmlns="http://www.w3.org/2000/svg">
<path d="M14.4405 8.9C15.0182 8.05555 15.3071 7.11111 15.3071 6.06667C15.3071 5.77778 15.2738 5.46667 15.2071 5.13333L12.1071 10.7333C13.0627 10.3556 13.8405 9.74444 14.4405 8.9ZM14.8738 1.16667C14.896 1.16667 14.9071 1.13333 14.9071 1.06667C14.9071 0.955555 14.8405 0.855557 14.7071 0.766668L14.1405 0.433334L13.4405 0.0666656C13.3294 0.0222212 13.2627 0 13.2405 0C13.1071 0 12.996 0.0555556 12.9071 0.166667L12.3071 1.26667C11.6405 1.13333 10.9738 1.06667 10.3071 1.06667C8.30713 1.06667 6.46268 1.57222 4.7738 2.58333C3.08491 3.59444 1.6738 4.97778 0.540462 6.73333C0.384907 6.95555 0.307129 7.21111 0.307129 7.5C0.307129 7.78889 0.384907 8.04445 0.540462 8.26667C1.18491 9.28889 1.95713 10.2 2.85713 11C3.75713 11.8 4.74046 12.4444 5.80713 12.9333C5.4738 13.4889 5.30713 13.8222 5.30713 13.9333C5.30713 14.0444 5.36268 14.1444 5.4738 14.2333C6.38491 14.7444 6.89602 15 7.00713 15C7.11824 15 7.21824 14.9444 7.30713 14.8333L14.8738 1.16667ZM6.50713 11.7C4.5738 10.8111 2.98491 9.41111 1.74046 7.5C2.8738 5.74444 4.28491 4.43333 5.9738 3.56667C5.52935 4.34444 5.30713 5.17778 5.30713 6.06667C5.30713 6.86667 5.49046 7.62222 5.85713 8.33333C6.2238 9.04445 6.72935 9.63334 7.3738 10.1L6.50713 11.7ZM10.6738 3.6C10.5849 3.71111 10.4627 3.76667 10.3071 3.76667C9.66268 3.76667 9.11268 3.98889 8.65713 4.43333C8.20157 4.87778 7.9738 5.42222 7.9738 6.06667C7.9738 6.22222 7.9238 6.35 7.8238 6.45C7.7238 6.55 7.60157 6.6 7.45713 6.6C7.31269 6.6 7.18491 6.55 7.0738 6.45C6.96268 6.35 6.90713 6.22222 6.90713 6.06667C6.90713 5.13333 7.24046 4.33333 7.90713 3.66667C8.5738 3 9.3738 2.66667 10.3071 2.66667C10.4627 2.66667 10.5905 2.72222 10.6905 2.83333C10.7905 2.94444 10.8405 3.07222 10.8405 3.21667C10.8405 3.36111 10.7849 3.48889 10.6738 3.6ZM20.0738 6.73333C19.6516 6.02222 19.1182 5.33889 18.4738 4.68333C17.8294 4.02778 17.1516 3.45556 16.4405 2.96667L15.7405 4.23333C16.9849 5.07778 18.0294 6.16667 18.8738 7.5C17.9849 8.9 16.8682 10.0444 15.5238 10.9333C14.1794 11.8222 12.7182 12.3333 11.1405 12.4667L10.3071 13.9333C11.9516 13.9333 13.5127 13.5778 14.9905 12.8667C16.4682 12.1556 17.7627 11.1667 18.8738 9.9C19.3849 9.3 19.7849 8.75556 20.0738 8.26667C20.2294 8.02222 20.3071 7.76667 20.3071 7.5C20.3071 7.23333 20.2294 6.97778 20.0738 6.73333Z" fill="currentColor"/>
</svg>
