<svg viewBox="0 0 22 16" xmlns="http://www.w3.org/2000/svg"><path d="M21.12 6.74667H0.88C0.635556 6.74667 0.427778 6.83222 0.256667 7.00333C0.0855556 7.17445 0 7.38223 0 7.62667C0 7.87111 0.0855556 8.07889 0.256667 8.25C0.427778 8.42111 0.635556 8.50667 0.88 8.50667H21.12C21.3644 8.50667 21.5722 8.42111 21.7433 8.25C21.9144 8.07889 22 7.87111 22 7.62667C22 7.38223 21.9144 7.17445 21.7433 7.00333C21.5722 6.83222 21.3644 6.74667 21.12 6.74667ZM21.12 0H0.88C0.635556 0 0.427778 0.0855573 0.256667 0.256668C0.0855556 0.42778 0 0.635556 0 0.880001C0 1.12445 0.0855556 1.33222 0.256667 1.50333C0.427778 1.67444 0.635556 1.76 0.88 1.76H21.12C21.3644 1.76 21.5722 1.67444 21.7433 1.50333C21.9144 1.33222 22 1.12445 22 0.880001C22 0.635556 21.9144 0.42778 21.7433 0.256668C21.5722 0.0855573 21.3644 0 21.12 0ZM21.12 13.4933H0.88C0.635556 13.4933 0.427778 13.5789 0.256667 13.75C0.0855556 13.9211 0 14.1289 0 14.3733C0 14.6178 0.0855556 14.8256 0.256667 14.9967C0.427778 15.1678 0.635556 15.2533 0.88 15.2533H21.12C21.3644 15.2533 21.5722 15.1678 21.7433 14.9967C21.9144 14.8256 22 14.6178 22 14.3733C22 14.1289 21.9144 13.9211 21.7433 13.75C21.5722 13.5789 21.3644 13.4933 21.12 13.4933Z" fill="currentColor"/></svg>
