<svg viewBox="0 0 16 9" fill="none" xmlns="http://www.w3.org/2000/svg"><path d="M7.719 8.962h.943s.284-.03.43-.188c.134-.144.13-.414.13-.414s-.019-1.265.568-1.452c.58-.183 1.323 1.223 2.11 1.764.596.41 1.05.32 1.05.32l2.106-.03s1.102-.068.58-.934c-.043-.071-.305-.641-1.567-1.813-1.321-1.226-1.144-1.027.447-3.148.97-1.292 1.357-2.08 1.236-2.418-.116-.322-.829-.237-.829-.237l-2.372.015s-.175-.024-.306.054c-.127.076-.21.254-.21.254s-.375 1-.876 1.85c-1.056 1.794-1.478 1.888-1.65 1.777-.402-.26-.302-1.043-.302-1.6 0-1.738.264-2.462-.513-2.65C8.436.05 8.246.01 7.586.002 6.74-.007 6.024.005 5.618.203c-.27.133-.478.427-.351.444.157.02.512.096.7.352.243.33.234 1.073.234 1.073s.14 2.047-.326 2.3c-.32.175-.758-.18-1.7-1.808C3.693 1.73 3.328.809 3.328.809s-.07-.172-.195-.264C2.98.433 2.768.398 2.768.398L.514.412S.176.422.052.57c-.111.13-.01.402-.01.402S1.808 5.099 3.807 7.18c1.832 1.908 3.913 1.782 3.913 1.782z" fill="currentColor"/></svg>